<svg xmlns="http://www.w3.org/2000/svg" width="141" height="55" fill="none" viewBox="0 0 141 55"><g clip-path="url(#clip0_2032_1505)"><path fill="#004d0a" fill-rule="evenodd" d="M8.708 14.402c-2.395.162-4.73.95-4.983 1.5s.543 2.65.543 3.862c.713-1.476 3.545-4.694 4.44-5.362m-4.121 5.11c-2.009 1.653-3.57 3.82-3.445 4.465.124.644 2.15 1.993 2.914 3.062-.302-1.752.164-6.375.531-7.527" clip-rule="evenodd" style="fill:#004d0a;fill:color(display-p3 0 .302 .0392);fill-opacity:1"/><path fill="#00aa2e" fill-rule="evenodd" d="M8.332 35.246a21 21 0 0 1-.837-.788c-3.132-3.117-5.37-9.438-3.052-15.16 2.319-5.724 9.327-7.958 13.28-5.166 1.546-.894 4.286-.796 5.54.643 1.814 2.08 1.817 5.334 2.504 6.834.25.547 1.262.446 1.262.446.494-.968 2.433-4.31 6.222-.244 1.532-1.228 3.74-1.422 4.583 1.376.734 2.44 1.302 9.444-6.764 11.2-1.185.257-2.557.402-4.142.402-.549 0-2.522-.17-3.093-.304.005.966.368 2.562.99 2.864s1.022.484 1.036.888c.013.361.088 1.137-1.26 1.418-7.498 1.561-13.198-1.618-16.269-4.409" clip-rule="evenodd" style="fill:#00aa2e;fill:color(display-p3 0 .6667 .1804);fill-opacity:1"/><path fill="#004d0a" fill-rule="evenodd" d="M27.031 22.052c-.23.45-.454.997-.583 1.495a.36.36 0 0 1-.698-.18c.118-.454.311-.946.519-1.383.36.108.762.068.762.068m-4.17 15.635a.21.21 0 0 0 .167-.29c-.357-.84-.517-2.632-.383-3.158-1.604-.526-4.443-1.642-5.872-2.679-2.103-1.527-3.135-2.706-4.764-1.941s-1.319 3.048-.657 3.953c.653.89 4.692 4.91 11.509 4.115" clip-rule="evenodd" style="fill:#004d0a;fill:color(display-p3 0 .302 .0392);fill-opacity:1"/><path fill="#ff7da2" fill-rule="evenodd" d="M11.66 33.936c2.16-.302 5.651.656 6.43 3.527-3.38-.75-5.577-2.605-6.43-3.527" clip-rule="evenodd" style="fill:#ff7da2;fill:color(display-p3 1 .4902 .6353);fill-opacity:1"/><path fill="#fff" fill-rule="evenodd" d="M13.013 29.379c1.129.01 2.118.99 3.759 2.181-.698.768-1.924 1.338-2.6 1.14-1.48-.433-1.263-2.526-1.16-3.321m.249-12.779c2.483-.14 4.391 2.129 4.547 4.878s-1.468 5.081-4.217 5.237c-2.484.14-4.626-1.977-4.782-4.727s1.969-5.247 4.452-5.388m7.883.412c1.373-.006 2.91 1.792 2.961 3.917.052 2.126-.9 3.806-2.442 3.843-1.542.038-3.094-1.581-3.146-3.707-.051-2.126 1.09-4.046 2.627-4.053" clip-rule="evenodd" style="fill:#fff;fill-opacity:1"/><path fill="#043f0a" fill-rule="evenodd" d="M13.542 20.168c.891 0 1.615.546 1.615 1.951s-.724 1.951-1.615 1.951c-.892 0-1.616-.617-1.616-1.951s.724-1.951 1.616-1.951m7.753-.402c.64 0 1.16.439 1.16 1.57 0 1.13-.52 1.57-1.16 1.57s-1.16-.497-1.16-1.57c0-1.074.52-1.57 1.16-1.57" clip-rule="evenodd" style="fill:#043f0a;fill:color(display-p3 .0157 .2471 .0392);fill-opacity:1"/><path fill="#004d0a" fill-rule="evenodd" d="M29.463 22.438c.322-.334.886-.315 1.665.435.78.75.822 1.312.5 1.647-.32.334-1.07.433-1.81-.278-.741-.712-.677-1.47-.355-1.804m6.841.212c-.293-.224-.735-.14-1.258.543-.524.685-.489 1.133-.196 1.357.294.225.893.273 1.39-.377s.358-1.298.064-1.522" clip-rule="evenodd" style="fill:#004d0a;fill:color(display-p3 0 .302 .0392);fill-opacity:1"/><path fill="#fff" d="M62.174 21.11q-1.108-.57-2.54-.57-1.746 0-3.066.838-.75.479-1.268 1.134a3.65 3.65 0 0 0-1.083-1.134q-1.252-.84-2.91-.839-1.455 0-2.618.638-.66.364-1.141.92v-.696a.683.683 0 0 0-.683-.683h-1.122a1.53 1.53 0 0 0-1.53 1.53v9.917c0 .328.266.594.594.594h1.22c.926 0 1.678-.75 1.678-1.677v-4.366q0-1.096.335-1.779.336-.682.94-1.03a2.7 2.7 0 0 1 1.365-.346q1.119 0 1.713.693.593.695.593 2.15v5.761c0 .328.266.594.594.594h1.22c.926 0 1.677-.75 1.677-1.677v-4.366q0-1.096.325-1.779.324-.682.928-1.03.605-.345 1.388-.346 1.074 0 1.668.693.593.695.593 2.15v5.761c0 .328.266.594.594.594h1.22c.926 0 1.677-.75 1.677-1.677v-5.216q0-1.836-.626-3.01-.627-1.176-1.735-1.746" style="fill:#fff;fill-opacity:1"/><path fill="#30a83c" d="M89.936 21.974a4 4 0 0 0-.94-.767q-1.142-.672-2.664-.672-1.701 0-3.066.772a5.6 5.6 0 0 0-2.149 2.16q-.783 1.389-.783 3.268 0 1.88.783 3.268a5.6 5.6 0 0 0 2.149 2.16q1.365.772 3.066.772 1.59 0 2.72-.66.592-.348 1.04-.896v.783c0 .328.266.594.594.594h2.147a.594.594 0 0 0 .594-.594v-15.42a.594.594 0 0 0-.594-.594h-.837a2.06 2.06 0 0 0-2.06 2.061zm-.634 6.551a2.85 2.85 0 0 1-1.108 1.153 3.1 3.1 0 0 1-1.567.392q-.85 0-1.544-.392a2.85 2.85 0 0 1-1.108-1.153q-.414-.76-.414-1.79 0-1.052.414-1.79.414-.74 1.108-1.13.694-.393 1.544-.393.873 0 1.567.392a2.9 2.9 0 0 1 1.108 1.13q.414.74.414 1.791 0 1.03-.414 1.79m35.931 4.231h2.303a.594.594 0 0 0 .594-.594v-15.42a.594.594 0 0 0-.594-.594h-.837a2.06 2.06 0 0 0-2.06 2.061v13.953c0 .328.265.594.594.594m-20.355-11.46q-1.422-.76-3.19-.76-1.835 0-3.301.794a5.75 5.75 0 0 0-2.283 2.204q-.817 1.41-.817 3.2 0 1.792.85 3.19.851 1.4 2.395 2.205t3.604.806q1.633 0 2.887-.504a5.6 5.6 0 0 0 1.608-.972.646.646 0 0 0 .055-.925l-.504-.547a1.51 1.51 0 0 0-1.677-.378l-.59.237q-.728.29-1.667.29-1.097 0-1.88-.39a2.95 2.95 0 0 1-1.587-2.026h8.632a.52.52 0 0 0 .519-.476l.001-.006q.021-.256.022-.458 0-1.948-.828-3.335a5.7 5.7 0 0 0-2.249-2.149m-4.745 2.272q.683-.392 1.578-.392t1.566.392 1.052 1.085q.251.46.326 1.03h-5.918a3.1 3.1 0 0 1 .332-1.018q.38-.705 1.064-1.097" style="fill:#30a83c;fill:color(display-p3 .1882 .6588 .2353);fill-opacity:1"/><path fill="#fff" d="M78.618 21.312v9.973c0 1.862-.56 3.131-.994 3.845-.566.934-2.138 2.835-5.797 2.835-1.847 0-3.708-1.128-4.47-2.192-.213-.297-.057-.72.269-.886l.662-.337a1.51 1.51 0 0 1 1.511.079s.915.714 1.92.714c2.618 0 3.422-1.528 3.422-3.83a4 4 0 0 1-1.021.787 5.2 5.2 0 0 1-2.551.638q-1.523 0-2.687-.58-1.164-.584-1.813-1.792-.65-1.208-.65-3.044v-6.21c0-.328.268-.593.596-.593h.836a2.06 2.06 0 0 1 2.062 2.06v4.206q0 1.523.636 2.227.639.705 1.803.705.804 0 1.432-.358.626-.359.997-1.074.368-.716.368-1.791v-3.938c0-1.125.912-2.037 2.038-2.037h.837c.328 0 .594.265.594.593" style="fill:#fff;fill-opacity:1"/><path fill="#30a83c" d="M118.546 21.974a4 4 0 0 0-.941-.764q-1.141-.67-2.662-.67-1.701 0-3.067.77a5.6 5.6 0 0 0-2.148 2.161q-.785 1.387-.785 3.268t.785 3.268a5.6 5.6 0 0 0 2.148 2.16q1.365.77 3.067.77 1.588 0 2.718-.659.594-.346 1.041-.893v.78c0 .328.266.593.594.593h2.147a.594.594 0 0 0 .595-.594V21.441a.594.594 0 0 0-.595-.594h-1.771a1.127 1.127 0 0 0-1.126 1.127m-.347 6.555q-.415.761-1.108 1.152-.694.392-1.566.392a3.1 3.1 0 0 1-1.544-.392 2.84 2.84 0 0 1-1.109-1.152q-.415-.76-.414-1.79 0-1.053.414-1.79a2.87 2.87 0 0 1 1.109-1.13 3.1 3.1 0 0 1 1.544-.394q.872 0 1.566.393a2.9 2.9 0 0 1 1.108 1.13q.414.739.415 1.791-.001 1.03-.415 1.79m16.343 1.545 5.759-6.794a1.556 1.556 0 0 0-1.187-2.561h-8.315a.514.514 0 0 0-.514.514v.564c0 .888.719 1.607 1.607 1.607h4.369l-5.743 6.795c-.237.28-.368.636-.368 1.004v.001c0 .86.697 1.556 1.556 1.556h8.651c.284 0 .514-.23.514-.514v-.565c0-.887-.719-1.607-1.607-1.607z" style="fill:#30a83c;fill:color(display-p3 .1882 .6588 .2353);fill-opacity:1"/></g><defs><clipPath id="clip0_2032_1505"><path fill="#fff" d="M0 0h140v27.3H0z" style="fill:#fff;fill-opacity:1" transform="translate(1 12.832)"/></clipPath></defs></svg>